<svg width="18" height="18" viewBox="0 0 18 18" fill="none" xmlns="http://www.w3.org/2000/svg">
<g clip-path="url(#clip0_9646_39841)">
<path d="M13.6293 5.92085C13.3004 5.73302 12.8772 5.73302 12.5012 5.92085L9.8695 7.47203L8.08372 8.45866L5.49877 10.0109C5.16989 10.1987 4.74675 10.1987 4.37074 10.0109L2.35069 8.78896C2.1789 8.68776 2.0365 8.54347 1.93755 8.37038C1.8386 8.19728 1.78653 8.00136 1.7865 7.80197V5.45093C1.7865 5.07491 1.97468 4.6989 2.35069 4.46394L4.37074 3.28912C4.69961 3.10094 5.12276 3.10094 5.49877 3.28912L7.51881 4.51107C7.69065 4.61222 7.8331 4.75649 7.93205 4.9296C8.03101 5.10271 8.08304 5.29866 8.08301 5.49806V7.04889L9.8688 6.01477V4.41716C9.8688 4.04115 9.68097 3.66514 9.30496 3.43017L5.54555 1.22195C5.21667 1.03376 4.79388 1.03376 4.41787 1.22195L0.56384 3.47695C0.187829 3.66514 0 4.04115 0 4.41716V8.83467C0 9.21069 0.187829 9.58563 0.56384 9.82166L4.37074 12.0309C4.69961 12.2191 5.12276 12.2191 5.49877 12.0309L8.08372 10.5269L9.8695 9.49314L12.4545 7.98909C12.7833 7.80126 13.2065 7.80126 13.5825 7.98909L15.6025 9.16426C15.7746 9.26551 15.9172 9.40999 16.0163 9.58337C16.1153 9.75675 16.1673 9.953 16.1671 10.1527V12.5023C16.1671 12.8783 15.9792 13.2543 15.6032 13.4893L13.6293 14.6644C13.3004 14.8523 12.8772 14.8523 12.5012 14.6644L10.4812 13.4893C10.3094 13.3881 10.1671 13.2438 10.0682 13.0707C9.96931 12.8976 9.91731 12.7016 9.91735 12.5023V10.9968L8.1305 12.0309V13.5818C8.1305 13.9578 8.31868 14.3338 8.69469 14.5688L12.5012 16.7777C12.8305 16.9659 13.2533 16.9659 13.6293 16.7777L17.4362 14.5684C17.6079 14.4672 17.7503 14.3229 17.8492 14.1498C17.948 13.9767 18 13.7808 18 13.5814V9.11606C18 8.74005 17.8122 8.36404 17.4362 8.12908L13.6293 5.92085Z" fill="#8247E5"/>
</g>
<defs>
<clipPath id="clip0_9646_39841">
<rect width="18" height="15.8382" fill="white" transform="translate(0 1.08032)"/>
</clipPath>
</defs>
</svg>
