<svg width="25" height="24" viewBox="0 0 25 24" fill="none" xmlns="http://www.w3.org/2000/svg">
<rect x="0.5" width="24" height="24" rx="12" fill="#8247E5"/>
<g clip-path="url(#clip0_10043_35558)">
<g clip-path="url(#clip1_10043_35558)">
<path d="M17.1293 8.92085C16.8004 8.73302 16.3772 8.73302 16.0012 8.92085L13.3695 10.472L11.5837 11.4587L8.99877 13.0109C8.66989 13.1987 8.24675 13.1987 7.87074 13.0109L5.85069 11.789C5.6789 11.6878 5.5365 11.5435 5.43755 11.3704C5.3386 11.1973 5.28653 11.0014 5.2865 10.802V8.45093C5.2865 8.07491 5.47468 7.6989 5.85069 7.46394L7.87074 6.28912C8.19961 6.10094 8.62276 6.10094 8.99877 6.28912L11.0188 7.51107C11.1907 7.61222 11.3331 7.75649 11.4321 7.9296C11.531 8.10271 11.583 8.29866 11.583 8.49806V10.0489L13.3688 9.01477V7.41716C13.3688 7.04115 13.181 6.66514 12.805 6.43017L9.04555 4.22195C8.71667 4.03376 8.29388 4.03376 7.91787 4.22195L4.06384 6.47695C3.68783 6.66514 3.5 7.04115 3.5 7.41716V11.8347C3.5 12.2107 3.68783 12.5856 4.06384 12.8217L7.87074 15.0309C8.19961 15.2191 8.62276 15.2191 8.99877 15.0309L11.5837 13.5269L13.3695 12.4931L15.9545 10.9891C16.2833 10.8013 16.7065 10.8013 17.0825 10.9891L19.1025 12.1643C19.2746 12.2655 19.4172 12.41 19.5163 12.5834C19.6153 12.7567 19.6673 12.953 19.6671 13.1527V15.5023C19.6671 15.8783 19.4792 16.2543 19.1032 16.4893L17.1293 17.6644C16.8004 17.8523 16.3772 17.8523 16.0012 17.6644L13.9812 16.4893C13.8094 16.3881 13.6671 16.2438 13.5682 16.0707C13.4693 15.8976 13.4173 15.7016 13.4173 15.5023V13.9968L11.6305 15.0309V16.5818C11.6305 16.9578 11.8187 17.3338 12.1947 17.5688L16.0012 19.7777C16.3305 19.9659 16.7533 19.9659 17.1293 19.7777L20.9362 17.5684C21.1079 17.4672 21.2503 17.3229 21.3492 17.1498C21.448 16.9767 21.5 16.7808 21.5 16.5814V12.1161C21.5 11.7401 21.3122 11.364 20.9362 11.1291L17.1293 8.92085Z" fill="white"/>
</g>
</g>
<defs>
<clipPath id="clip0_10043_35558">
<rect width="18" height="18" fill="white" transform="translate(3.5 3)"/>
</clipPath>
<clipPath id="clip1_10043_35558">
<rect width="18" height="15.8382" fill="white" transform="translate(3.5 4.08032)"/>
</clipPath>
</defs>
</svg>
