<svg width="32" height="32" viewBox="0 0 32 32" fill="none" xmlns="http://www.w3.org/2000/svg">
<path fill-rule="evenodd" clip-rule="evenodd" d="M6.66667 5.33331C5.95942 5.33331 5.28115 5.61426 4.78105 6.11436C4.28095 6.61446 4 7.29274 4 7.99998V24C4 24.7072 4.28095 25.3855 4.78105 25.8856C5.28115 26.3857 5.95942 26.6666 6.66667 26.6666H25.3333C26.0406 26.6666 26.7189 26.3857 27.219 25.8856C27.719 25.3855 28 24.7072 28 24V7.99998C28 7.29274 27.719 6.61446 27.219 6.11436C26.7189 5.61426 26.0406 5.33331 25.3333 5.33331H6.66667ZM25.3333 16.9146V7.99998H6.66667V24H7.90533L18.9827 12.9226C19.1374 12.7678 19.3212 12.645 19.5234 12.5612C19.7257 12.4775 19.9424 12.4343 20.1613 12.4343C20.3802 12.4343 20.597 12.4775 20.7992 12.5612C21.0015 12.645 21.1852 12.7678 21.34 12.9226L25.3333 16.9146ZM11.3333 14.6666C11.8638 14.6666 12.3725 14.4559 12.7475 14.0809C13.1226 13.7058 13.3333 13.1971 13.3333 12.6666C13.3333 12.1362 13.1226 11.6275 12.7475 11.2524C12.3725 10.8774 11.8638 10.6666 11.3333 10.6666C10.8029 10.6666 10.2942 10.8774 9.91912 11.2524C9.54405 11.6275 9.33333 12.1362 9.33333 12.6666C9.33333 13.1971 9.54405 13.7058 9.91912 14.0809C10.2942 14.4559 10.8029 14.6666 11.3333 14.6666Z" fill="white"/>
</svg>
