<svg width="38" height="38" viewBox="0 0 38 38" fill="none" xmlns="http://www.w3.org/2000/svg">
<rect x="0.5" y="0.5" width="37" height="37" rx="18.5" fill="#343434"/>
<rect x="0.5" y="0.5" width="37" height="37" rx="18.5" stroke="#83807F"/>
<path d="M26.5215 19.4701V23.936C26.5276 24.0405 26.5099 24.1449 26.4698 24.2416C26.407 24.3928 26.2904 24.5154 26.1426 24.5857L21.0072 27.0114C20.3796 27.3078 19.694 27.4615 18.9999 27.4615C18.3058 27.4615 17.6203 27.3078 16.9926 27.0114L11.8572 24.5857C11.736 24.5282 11.6351 24.4354 11.5678 24.3194C11.5005 24.2034 11.47 24.0697 11.4802 23.936V19.4701M17.1195 12.4186C17.1195 12.9173 17.3176 13.3956 17.6703 13.7482C18.0229 14.1009 18.5012 14.299 18.9999 14.299C19.4986 14.299 19.9769 14.1009 20.3295 13.7482C20.6822 13.3956 20.8803 12.9173 20.8803 12.4186C20.8803 11.9199 20.6822 11.4416 20.3295 11.089C19.9769 10.7363 19.4986 10.5382 18.9999 10.5382C18.5012 10.5382 18.0229 10.7363 17.6703 11.089C17.3176 11.4416 17.1195 11.9199 17.1195 12.4186Z" stroke="#39EFEE" stroke-width="1.5" stroke-linecap="round" stroke-linejoin="round"/>
<path d="M19.0001 14.2991V19.9402M11.8837 19.2031L17.1808 17.0106C18.3458 16.529 19.6543 16.529 20.8193 17.0106L26.1164 19.2031C26.2338 19.2511 26.3345 19.3323 26.4064 19.4367C26.4782 19.5412 26.518 19.6643 26.5208 19.7911C26.5236 19.9178 26.4893 20.0426 26.4221 20.1501C26.355 20.2576 26.2578 20.3432 26.1427 20.3962L21.0074 22.7872C20.3786 23.0795 19.6935 23.231 19.0001 23.231C18.3066 23.231 17.6215 23.0795 16.9927 22.7872L11.8574 20.3962C11.7416 20.3436 11.6439 20.2582 11.5762 20.1505C11.5086 20.0428 11.474 19.9177 11.4768 19.7905C11.4796 19.6634 11.5197 19.5399 11.592 19.4353C11.6643 19.3307 11.7658 19.2506 11.8837 19.2031Z" stroke="#39EFEE" stroke-width="1.5" stroke-linecap="round"/>
</svg>
