<svg width="38" height="38" viewBox="0 0 38 38" fill="none" xmlns="http://www.w3.org/2000/svg">
<rect x="0.5" y="0.5" width="37" height="37" rx="18.5" fill="#343434"/>
<rect x="0.5" y="0.5" width="37" height="37" rx="18.5" stroke="#83807F"/>
<g clip-path="url(#clip0_5469_30755)">
<path d="M13.8985 26.875H18.1015L18.4352 25.375H20.3148L20.6485 26.875H24.8515L25.3255 24.7428C28.063 22.447 28.843 18.4503 26.995 15.2493C26.8255 14.9568 26.6402 14.6793 26.44 14.4183C26.5913 13.5862 26.4569 12.7274 26.0587 11.9814C25.6604 11.2353 25.0217 10.6458 24.2461 10.3085C23.4706 9.97118 22.6038 9.90594 21.7866 10.1233C20.9693 10.3407 20.2495 10.828 19.744 11.506C18.7367 11.5698 17.719 11.8083 16.741 12.2223L16.051 12.5148L16.6345 13.8955L17.3253 13.603C17.8812 13.3672 18.4626 13.1966 19.0577 13.0945C18.911 13.9208 19.0456 14.7724 19.4401 15.5132C19.8346 16.2539 20.4661 16.8409 21.2337 17.1802C22.0013 17.5195 22.8605 17.5916 23.6738 17.3848C24.4872 17.1781 25.2077 16.7044 25.72 16.0398C26.43 17.2922 26.6661 18.7582 26.3852 20.1703C26.1044 21.5823 25.3252 22.8463 24.19 23.7318L23.977 23.8975L23.6485 25.375H21.8515L21.5185 23.875H17.2315L16.8985 25.375H15.1015L14.5998 23.1175L14.224 22.9735C13.426 22.6675 12.3017 22.021 11.5 21.301V17.875H12.2995L13.8347 15.3175L13.3338 14.0643C13.9383 14.1423 14.635 14.44 15.2845 15.1548L15.7892 15.7098L16.8993 14.7003L16.3945 14.1453C14.9748 12.5838 13.267 12.3678 12.0805 12.6445L11.2293 12.8425L12.1653 15.1825L11.4505 16.375H10V21.937L10.2212 22.1568C11.0838 23.0148 12.3175 23.7768 13.3075 24.217L13.8985 26.875ZM14.125 18.625H15.628V17.1205H14.125V18.625ZM22.75 16C22.1533 16 21.581 15.763 21.159 15.341C20.7371 14.9191 20.5 14.3468 20.5 13.75C20.5 13.1533 20.7371 12.581 21.159 12.159C21.581 11.7371 22.1533 11.5 22.75 11.5C23.3467 11.5 23.919 11.7371 24.341 12.159C24.7629 12.581 25 13.1533 25 13.75C25 14.3468 24.7629 14.9191 24.341 15.341C23.919 15.763 23.3467 16 22.75 16Z" fill="#AF56FF"/>
</g>
<defs>
<clipPath id="clip0_5469_30755">
<rect width="18" height="18" fill="white" transform="translate(10 10)"/>
</clipPath>
</defs>
</svg>
