<svg width="8" height="13" viewBox="0 0 8 13" fill="none" xmlns="http://www.w3.org/2000/svg">
<path d="M1.70955 0.629941C1.81255 0.545824 1.93807 0.500215 2.06716 0.5H5.99317C6.08928 0.499914 6.18398 0.525008 6.26916 0.573135C6.35434 0.621261 6.42746 0.690986 6.48226 0.776338C6.53706 0.861691 6.57191 0.960127 6.58381 1.06322C6.59572 1.16631 6.58433 1.27099 6.55063 1.36828L5.6625 3.92855H7.40545C7.52162 3.92859 7.63523 3.9654 7.73227 4.03444C7.8293 4.10348 7.9055 4.20172 7.95147 4.31704C7.99743 4.43237 8.01114 4.55971 7.99091 4.68336C7.97068 4.80701 7.91739 4.92155 7.83762 5.01283L1.41375 12.3654C1.3536 12.4343 1.27398 12.4798 1.18737 12.4947C1.10075 12.5096 1.01201 12.493 0.935053 12.4475C0.858093 12.402 0.797251 12.3303 0.762049 12.2434C0.726848 12.1566 0.719275 12.0596 0.740514 11.9676L1.80706 7.3571H0.5954C0.503294 7.35721 0.412422 7.3342 0.329947 7.28987C0.247473 7.24555 0.17565 7.18112 0.12014 7.10167C0.0646303 7.02223 0.0269509 6.92993 0.0100717 6.83205C-0.00680744 6.73418 -0.002425 6.63341 0.0228737 6.53768L1.49622 0.966283C1.53167 0.832114 1.60655 0.714058 1.70955 0.629941Z" fill="#39EFEE"/>
</svg>
