<svg width="110" height="110" viewBox="0 0 110 110" fill="none" xmlns="http://www.w3.org/2000/svg">
<rect width="110" height="110" rx="20" fill="white"/>
<rect x="20" y="49.3988" width="69.3336" height="10.4937" rx="5.24686" fill="#34A853"/>
<rect x="41.8773" y="22" width="69.3336" height="10.4937" rx="5.24686" transform="rotate(60 41.8773 22)" fill="#FDBC03"/>
<path fill-rule="evenodd" clip-rule="evenodd" d="M54.4794 65.4641L57.6961 59.8927H84.0867C86.9845 59.8927 89.3336 57.5435 89.3336 54.6458C89.3336 51.7481 86.9845 49.3989 84.0867 49.3989H63.7546L73.9207 31.7909C75.3695 29.2813 74.5097 26.0724 72.0002 24.6235C69.4906 23.1746 66.2817 24.0344 64.8328 26.544L54.4794 44.4767V65.4641Z" fill="#1972E9"/>
<path fill-rule="evenodd" clip-rule="evenodd" d="M47.9823 55.77L35.4129 77.5409C33.964 80.0504 34.8238 83.2594 37.3334 84.7083C39.8429 86.1572 43.0519 85.2973 44.5007 82.7878L54.6668 65.1797L64.8328 82.7878C66.2817 85.2973 69.4906 86.1572 72.0002 84.7083C74.5097 83.2594 75.3695 80.0505 73.9206 77.5409L61.3512 55.77H47.9823Z" fill="#E94335"/>
<path d="M54.6668 44.152L63.7546 59.8926H45.5507L54.6668 44.152Z" fill="#174EA6"/>
</svg>
