<svg width="32" height="30" viewBox="0 0 32 30" fill="none" xmlns="http://www.w3.org/2000/svg">
<g id="CalendarCheck">
<g id="Group 2600">
<path id="Subtract" fill-rule="evenodd" clip-rule="evenodd" d="M11.5725 13.1977C11.1039 12.7674 10.3441 12.7674 9.87549 13.1977L5.50231 17.2133C3.09908 19.4201 3.05037 22.9532 5.39352 25.1048C7.73666 27.2563 11.5844 27.2116 13.9876 25.0049L18.3608 20.9892C18.8294 20.5589 18.8294 19.8612 18.3608 19.4309C17.8921 19.0006 17.1323 19.0006 16.6637 19.4309L12.2905 23.4466C10.8486 24.7706 8.53998 24.7974 7.13409 23.5065C5.7282 22.2155 5.75743 20.0957 7.19936 18.7716L11.5725 14.756C12.0412 14.3257 12.0412 13.628 11.5725 13.1977ZM20.4277 17.533C19.9591 17.1027 19.9591 16.405 20.4277 15.9747L24.8009 11.959C26.2428 10.635 26.272 8.51512 24.8662 7.22418C23.4603 5.93324 21.1516 5.96007 19.7097 7.28412L15.3365 11.2998C14.8679 11.7301 14.1081 11.7301 13.6395 11.2998C13.1708 10.8694 13.1708 10.1718 13.6395 9.74145L18.0127 5.72581C20.4159 3.51907 24.2636 3.47435 26.6067 5.62592C28.9499 7.77749 28.9012 11.3106 26.4979 13.5173L22.1248 17.533C21.6561 17.9633 20.8963 17.9633 20.4277 17.533Z" fill="#39EFEE"/>
<rect id="Rectangle 3436" width="11.5199" height="1.91998" rx="0.959991" transform="matrix(0.736576 -0.676354 0.736576 0.676354 11.0503 18.6123)" fill="#39EFEE"/>
</g>
</g>
</svg>
