<svg width="40" height="40" viewBox="0 0 40 40" fill="none" xmlns="http://www.w3.org/2000/svg">
<g id="Group 2276">
<g id="Vector" filter="url(#filter0_d_9353_35080)">
<path d="M11.755 1.16504H26.245L36.5 11.42V25.91L26.245 36.165H11.755L1.5 25.91V11.42L11.755 1.16504Z" fill="#292929"/>
<path d="M11.755 1.16504H26.245L36.5 11.42V25.91L26.245 36.165H11.755L1.5 25.91V11.42L11.755 1.16504Z" stroke="#E94347" stroke-width="1.5"/>
</g>
<path id="Subtract" fill-rule="evenodd" clip-rule="evenodd" d="M13.6875 13.415C13.6875 10.5202 16.0707 8.16504 19 8.16504C21.9293 8.16504 24.3125 10.5202 24.3125 13.415V16.565H25.375C25.9386 16.565 26.4791 16.7863 26.8776 17.1801C27.2761 17.5739 27.5 18.1081 27.5 18.665V27.065C27.5 27.622 27.2761 28.1561 26.8776 28.55C26.4791 28.9438 25.9386 29.165 25.375 29.165H12.625C12.0614 29.165 11.5209 28.9438 11.1224 28.55C10.7239 28.1561 10.5 27.622 10.5 27.065V18.665C10.5 18.1081 10.7239 17.5739 11.1224 17.1801C11.5209 16.7863 12.0614 16.565 12.625 16.565H13.6875V13.415ZM19 10.265C17.2426 10.265 15.8125 11.6783 15.8125 13.415V16.565H22.1875V13.415C22.1875 11.6783 20.7574 10.265 19 10.265ZM20.8849 21.4463H23.0156C22.9645 20.9236 22.8324 20.4591 22.6193 20.0528C22.4062 19.6466 22.1293 19.3042 21.7884 19.0258C21.4474 18.7446 21.0526 18.5315 20.6037 18.3866C20.1548 18.2389 19.6662 18.165 19.1378 18.165C18.3622 18.165 17.6619 18.3383 17.0369 18.6849C16.4119 19.0315 15.9162 19.5386 15.5497 20.2062C15.1832 20.8738 15 21.6878 15 22.648C15 23.6054 15.1804 24.4179 15.5412 25.0855C15.902 25.7531 16.3935 26.2616 17.0156 26.6111C17.6406 26.9577 18.348 27.1309 19.1378 27.1309C19.7372 27.1309 20.2685 27.04 20.7315 26.8582C21.1974 26.6764 21.5923 26.4321 21.9162 26.1253C22.2401 25.8156 22.4943 25.4733 22.679 25.0983C22.8665 24.7233 22.9787 24.3426 23.0156 23.9562L20.8849 23.9434C20.848 24.1537 20.7812 24.3426 20.6847 24.5102C20.5909 24.675 20.4702 24.8156 20.3224 24.9321C20.1776 25.0457 20.0085 25.1324 19.8153 25.192C19.625 25.2517 19.4134 25.2815 19.1804 25.2815C18.7656 25.2815 18.4062 25.1835 18.1023 24.9875C17.8011 24.7886 17.5668 24.4946 17.3991 24.1054C17.2344 23.7133 17.152 23.2275 17.152 22.648C17.152 22.0912 17.233 21.6167 17.3949 21.2247C17.5597 20.8327 17.794 20.5329 18.098 20.3256C18.4048 20.1182 18.7699 20.0145 19.1932 20.0145C19.4318 20.0145 19.6491 20.0486 19.8452 20.1167C20.044 20.1821 20.2159 20.2773 20.3608 20.4023C20.5057 20.5273 20.6222 20.6778 20.7102 20.854C20.7983 21.0301 20.8565 21.2275 20.8849 21.4463Z" fill="#C4C4C4"/>
</g>
<defs>
<filter id="filter0_d_9353_35080" x="0.75" y="0.415039" width="38.5" height="39.5" filterUnits="userSpaceOnUse" color-interpolation-filters="sRGB">
<feFlood flood-opacity="0" result="BackgroundImageFix"/>
<feColorMatrix in="SourceAlpha" type="matrix" values="0 0 0 0 0 0 0 0 0 0 0 0 0 0 0 0 0 0 127 0" result="hardAlpha"/>
<feOffset dx="2" dy="3"/>
<feComposite in2="hardAlpha" operator="out"/>
<feColorMatrix type="matrix" values="0 0 0 0 0 0 0 0 0 0 0 0 0 0 0 0 0 0 0.25 0"/>
<feBlend mode="normal" in2="BackgroundImageFix" result="effect1_dropShadow_9353_35080"/>
<feBlend mode="normal" in="SourceGraphic" in2="effect1_dropShadow_9353_35080" result="shape"/>
</filter>
</defs>
</svg>
