<svg width="38" height="37" viewBox="0 0 38 37" fill="none" xmlns="http://www.w3.org/2000/svg">
<g id="Group 2277">
<g id="Group 2167">
<path id="Vector" d="M11.755 1.16504H26.245L36.5 11.42V25.91L26.245 36.165H11.755L1.5 25.91V11.42L11.755 1.16504Z" fill="#292929" stroke="#9659FF" stroke-width="1.5"/>
<path id="Subtract" fill-rule="evenodd" clip-rule="evenodd" d="M13.875 13.415C13.875 10.5202 16.2582 8.16504 19.1875 8.16504C22.1168 8.16504 24.5 10.5202 24.5 13.415V16.565H25.5625C26.1261 16.565 26.6666 16.7863 27.0651 17.1801C27.4636 17.5739 27.6875 18.1081 27.6875 18.665V27.065C27.6875 27.622 27.4636 28.1561 27.0651 28.55C26.6666 28.9438 26.1261 29.165 25.5625 29.165H12.8125C12.2489 29.165 11.7084 28.9438 11.3099 28.55C10.9114 28.1561 10.6875 27.622 10.6875 27.065V18.665C10.6875 18.1081 10.9114 17.5739 11.3099 17.1801C11.7084 16.7863 12.2489 16.565 12.8125 16.565H13.875V13.415ZM19.1875 10.265C17.4301 10.265 16 11.6783 16 13.415V16.565H22.375V13.415C22.375 11.6783 20.9449 10.265 19.1875 10.265ZM18.9886 23.4662L21.2806 27.1982H23.5486L20.2246 22.1222L23.2486 18.7982H21.0046L17.8366 22.3022V18.7982H16.0246V27.1982H17.8366V24.7262L18.9886 23.4662Z" fill="#C4C4C4"/>
</g>
</g>
</svg>
