<svg width="38" height="37" viewBox="0 0 38 37" fill="none" xmlns="http://www.w3.org/2000/svg">
<g id="Group 2274">
<path id="Vector" d="M11.755 1.16504H26.245L36.5 11.42V25.91L26.245 36.165H11.755L1.5 25.91V11.42L11.755 1.16504Z" fill="#292929" stroke="#85B6FF" stroke-width="1.5"/>
<path id="Subtract" fill-rule="evenodd" clip-rule="evenodd" d="M13.6875 13.415C13.6875 10.5202 16.0707 8.16504 19 8.16504C21.9293 8.16504 24.3125 10.5202 24.3125 13.415V16.565H25.375C25.9386 16.565 26.4791 16.7863 26.8776 17.1801C27.2761 17.5739 27.5 18.1081 27.5 18.665V27.065C27.5 27.622 27.2761 28.1561 26.8776 28.55C26.4791 28.9438 25.9386 29.165 25.375 29.165H12.625C12.0614 29.165 11.5209 28.9438 11.1224 28.55C10.7239 28.1561 10.5 27.622 10.5 27.065V18.665C10.5 18.1081 10.7239 17.5739 11.1224 17.1801C11.5209 16.7863 12.0614 16.565 12.625 16.565H13.6875V13.415ZM19 10.265C17.2426 10.265 15.8125 11.6783 15.8125 13.415V16.565H22.1875V13.415C22.1875 11.6783 20.7574 10.265 19 10.265ZM17 18.165V26.8923H22.7401V25.1792H19.1094V18.165H17Z" fill="#C4C4C4"/>
</g>
</svg>
