<svg width="33" height="32" viewBox="0 0 33 32" fill="none" xmlns="http://www.w3.org/2000/svg">
<g id="Tag">
<path id="Vector" d="M15.4879 4.01841L5.92999 5.92999L4.01841 15.4879C3.9878 15.641 3.99545 15.7992 4.04068 15.9486C4.08591 16.0979 4.16731 16.2338 4.27767 16.3442L16.6558 28.7223C16.7438 28.8104 16.8483 28.8802 16.9634 28.9278C17.0784 28.9755 17.2017 29 17.3262 29C17.4507 29 17.5739 28.9755 17.689 28.9278C17.804 28.8802 17.9085 28.8104 17.9965 28.7223L28.7223 17.9965C28.8104 17.9085 28.8802 17.804 28.9278 17.689C28.9755 17.5739 29 17.4507 29 17.3262C29 17.2017 28.9755 17.0784 28.9278 16.9634C28.8802 16.8483 28.8104 16.7438 28.7223 16.6558L16.3442 4.27767C16.2338 4.16731 16.0979 4.08591 15.9486 4.04068C15.7992 3.99545 15.641 3.9878 15.4879 4.01841V4.01841Z" stroke="#39EFEE" stroke-width="2" stroke-linecap="round" stroke-linejoin="round"/>
<path id="Vector_2" d="M11.5 12C12.3284 12 13 11.3284 13 10.5C13 9.67157 12.3284 9 11.5 9C10.6716 9 10 9.67157 10 10.5C10 11.3284 10.6716 12 11.5 12Z" fill="#39EFEE"/>
</g>
</svg>
