<svg width="16" height="16" viewBox="0 0 16 16" fill="none" xmlns="http://www.w3.org/2000/svg">
<g id="Tag">
<path id="Vector" d="M7.49396 2.00921L2.715 2.965L1.75921 7.74396C1.7439 7.82048 1.74773 7.89959 1.77034 7.97428C1.79295 8.04897 1.83366 8.11692 1.88884 8.1721L8.0779 14.3612C8.12192 14.4052 8.17417 14.4401 8.23168 14.4639C8.28919 14.4877 8.35083 14.5 8.41308 14.5C8.47533 14.5 8.53697 14.4877 8.59448 14.4639C8.65199 14.4401 8.70425 14.4052 8.74826 14.3612L14.1112 8.99826C14.1552 8.95425 14.1901 8.90199 14.2139 8.84448C14.2377 8.78697 14.25 8.72533 14.25 8.66308C14.25 8.60083 14.2377 8.53919 14.2139 8.48168C14.1901 8.42417 14.1552 8.37192 14.1112 8.3279L7.9221 2.13884C7.86692 2.08366 7.79897 2.04295 7.72428 2.02034C7.64959 1.99773 7.57048 1.9939 7.49396 2.00921V2.00921Z" stroke="#39EFEE" stroke-linecap="round" stroke-linejoin="round"/>
<path id="Vector_2" d="M5.5 6C5.91421 6 6.25 5.66421 6.25 5.25C6.25 4.83579 5.91421 4.5 5.5 4.5C5.08579 4.5 4.75 4.83579 4.75 5.25C4.75 5.66421 5.08579 6 5.5 6Z" fill="#39EFEE"/>
</g>
</svg>
