<svg width="40" height="40" viewBox="0 0 40 40" fill="none" xmlns="http://www.w3.org/2000/svg">
<g id="&#231;&#188;&#150;&#231;&#187;&#132;">
<rect id="Right (Background/Mask)" width="40" height="40" rx="20" fill="black" fill-opacity="0.8"/>
<path id="&#232;&#183;&#175;&#229;&#190;&#132;" fill-rule="evenodd" clip-rule="evenodd" d="M28.0518 12.2481C28.4423 12.6386 28.4423 13.2717 28.0518 13.6623L21.9108 19.8032L28.0518 25.9442C28.4423 26.3347 28.4423 26.9679 28.0518 27.3584L27.3589 28.0513C26.9684 28.4418 26.3352 28.4418 25.9447 28.0513L19.8037 21.9103L13.6628 28.0513C13.2722 28.4418 12.6391 28.4418 12.2485 28.0513L11.5557 27.3584C11.1651 26.9679 11.1651 26.3347 11.5557 25.9442L17.6966 19.8032L11.5557 13.6623C11.1651 13.2717 11.1651 12.6386 11.5557 12.2481L12.2485 11.5552C12.6391 11.1646 13.2722 11.1646 13.6628 11.5552L19.8037 17.6961L25.9447 11.5552C26.3352 11.1646 26.9684 11.1646 27.3589 11.5552L28.0518 12.2481Z" fill="white"/>
</g>
</svg>
