<svg width="38" height="38" viewBox="0 0 38 38" fill="none" xmlns="http://www.w3.org/2000/svg">
<rect x="0.5" y="0.5" width="37" height="37" rx="18.5" fill="#343434"/>
<rect x="0.5" y="0.5" width="37" height="37" rx="18.5" stroke="#83807F"/>
<path d="M15.778 10.2057C15.9454 10.0726 16.1494 10.0003 16.3591 10H22.7389C22.8951 9.99986 23.049 10.0396 23.1874 10.1158C23.3258 10.192 23.4446 10.3024 23.5337 10.4375C23.6227 10.5727 23.6793 10.7285 23.6987 10.8918C23.718 11.055 23.6995 11.2207 23.6448 11.3748L22.2016 15.4285H25.0339C25.2226 15.4286 25.4073 15.4869 25.5649 15.5962C25.7226 15.7055 25.8464 15.8611 25.9211 16.0437C25.9958 16.2262 26.0181 16.4279 25.9852 16.6237C25.9524 16.8194 25.8658 17.0008 25.7361 17.1453L15.2973 28.7868C15.1996 28.896 15.0702 28.9681 14.9295 28.9916C14.7887 29.0151 14.6445 28.9889 14.5195 28.9169C14.3944 28.8449 14.2955 28.7313 14.2383 28.5938C14.1811 28.4563 14.1688 28.3027 14.2033 28.1571L15.9365 20.8571H13.9675C13.8179 20.8573 13.6702 20.8208 13.5362 20.7506C13.4021 20.6804 13.2854 20.5784 13.1952 20.4527C13.105 20.3269 13.0438 20.1807 13.0164 20.0258C12.9889 19.8708 12.9961 19.7112 13.0372 19.5597L15.4314 10.7383C15.489 10.5258 15.6107 10.3389 15.778 10.2057Z" fill="#39EFEE"/>
</svg>
