<svg width="8" height="12" viewBox="0 0 8 12" fill="none" xmlns="http://www.w3.org/2000/svg">
<path d="M1.71053 0.129941C1.81352 0.0458244 1.93905 0.000215086 2.06814 2.23146e-07H5.99414C6.09026 -8.63315e-05 6.18496 0.0250081 6.27014 0.0731348C6.35532 0.121261 6.42844 0.190986 6.48324 0.276338C6.53804 0.361691 6.57288 0.460127 6.58479 0.563219C6.59669 0.666311 6.58531 0.770986 6.5516 0.86828L5.66347 3.42855H7.40643C7.5226 3.42859 7.63621 3.4654 7.73324 3.53444C7.83028 3.60348 7.90648 3.70172 7.95244 3.81704C7.99841 3.93237 8.01212 4.05971 7.99189 4.18336C7.97166 4.30701 7.91837 4.42155 7.8386 4.51283L1.41472 11.8654C1.35458 11.9343 1.27496 11.9798 1.18834 11.9947C1.10172 12.0096 1.01299 11.993 0.93603 11.9475C0.85907 11.902 0.798227 11.8303 0.763026 11.7434C0.727825 11.6566 0.720251 11.5596 0.741491 11.4676L1.80804 6.8571H0.596377C0.50427 6.85721 0.413398 6.8342 0.330924 6.78987C0.248449 6.74555 0.176626 6.68112 0.121117 6.60167C0.0656069 6.52223 0.0279275 6.42993 0.0110483 6.33205C-0.00583087 6.23418 -0.00144843 6.13341 0.0238503 6.03768L1.49719 0.466283C1.53265 0.332114 1.60753 0.214058 1.71053 0.129941Z" fill="white"/>
</svg>
