<svg width="13" height="11" viewBox="0 0 13 11" fill="none" xmlns="http://www.w3.org/2000/svg">
<path fill-rule="evenodd" clip-rule="evenodd" d="M7.85256 10.0363L10.8679 10.0636C11.2679 10.0434 11.6261 10.0129 11.9105 9.98425C12.2467 9.94811 12.5335 9.72486 12.651 9.40782C13.0616 8.30523 12.4102 7.22557 10.9919 6.65796L10.8692 6.609C10.5771 6.47198 10.2671 6.37681 9.94836 6.3263C9.92903 6.28555 9.90739 6.24594 9.88353 6.20766L9.84516 6.14239C9.79179 6.04801 9.72123 5.94128 9.63919 5.81955C9.22608 5.25623 8.94236 4.60868 8.80828 3.92309C8.9899 3.43215 9.11652 2.92258 9.18581 2.40373C9.23531 2.2122 9.1847 2.00863 9.05129 1.86257C8.81608 1.67531 8.49645 1.63387 8.22126 1.75496C7.18888 1.96049 6.14245 1.4728 5.63591 0.550052C5.5395 0.353644 5.39281 0.18626 5.21075 0.0649121L5.20955 0.0642582C5.09232 0.00050051 4.73691 -0.192792 3.91852 0.663398L1.96958 2.93517C1.95053 2.95716 1.9341 2.98129 1.92062 3.00706L1.77023 3.28756C1.62996 3.5604 1.66458 3.8904 1.85844 4.12818C3.75798 6.65752 5.08506 8.37932 5.8035 9.24419C5.8289 9.27467 5.85862 9.30126 5.89171 9.32314C6.48487 9.70227 7.15442 9.94579 7.85256 10.0363ZM6.22536 7.16178C6.31743 7.29073 6.46892 7.36762 6.63066 7.36748L6.63174 7.36485C6.81471 7.36445 6.98239 7.2658 7.06729 7.10863C7.15219 6.95146 7.14033 6.76162 7.0365 6.61554L6.32384 5.61855L6.66367 5.57814C6.83464 5.55758 6.98213 5.45195 7.0527 5.29955C7.12326 5.14714 7.10666 4.97007 7.0089 4.8325L5.81195 3.15336C5.65744 2.93601 5.35049 2.88127 5.12635 3.0311C4.90221 3.18093 4.84576 3.47858 5.00027 3.69593L5.73511 4.7286L5.39366 4.76901C5.22253 4.78951 5.07493 4.89532 5.00453 5.04795C4.93413 5.20059 4.95119 5.37781 5.04951 5.51518L6.22536 7.16178Z" fill="white"/>
<path d="M8.03665 10.0231H3.10234C2.88574 10.0159 2.71387 9.83825 2.71387 9.62153C2.71387 9.40482 2.88574 9.22715 3.10234 9.21997H8.03665C8.25325 9.22715 8.42512 9.40482 8.42512 9.62153C8.42512 9.83825 8.25325 10.0159 8.03665 10.0231Z" fill="white"/>
<path d="M5.11672 8.42903H1.89451C1.67285 8.42903 1.49316 8.24934 1.49316 8.02769C1.49316 7.80603 1.67285 7.62634 1.89451 7.62634H5.11672C5.33837 7.62634 5.51806 7.80603 5.51806 8.02769C5.51806 8.24934 5.33837 8.42903 5.11672 8.42903Z" fill="white"/>
<path d="M3.86456 6.84846H0.888892C0.667236 6.84846 0.487549 6.66877 0.487549 6.44712C0.487549 6.22546 0.667236 6.04578 0.888892 6.04578H3.86456C4.08622 6.04578 4.2659 6.22546 4.2659 6.44712C4.2659 6.66877 4.08622 6.84846 3.86456 6.84846Z" fill="white"/>
<path d="M2.73143 5.25789H0.402319C0.258934 5.25789 0.126439 5.18139 0.0547463 5.05721C-0.0169467 4.93304 -0.0169467 4.78005 0.0547463 4.65587C0.126439 4.5317 0.258934 4.4552 0.402319 4.4552H2.73143C2.87482 4.4552 3.00731 4.5317 3.079 4.65587C3.1507 4.78005 3.1507 4.93304 3.079 5.05721C3.00731 5.18139 2.87482 5.25789 2.73143 5.25789Z" fill="white"/>
</svg>
