<svg width="25" height="25" viewBox="0 0 25 25" fill="none" xmlns="http://www.w3.org/2000/svg">
<rect width="25" height="25" rx="12.5" fill="#39EFEE"/>
<path d="M11.713 16.4352H8.56482C7.47609 16.4352 6.54817 16.0514 5.78107 15.2838C5.01398 14.5161 4.63016 13.5882 4.62964 12.5C4.62964 11.4113 5.01345 10.4834 5.78107 9.71625C6.5487 8.94916 7.47661 8.56534 8.56482 8.56482H11.713V10.1389H8.56482C7.90896 10.1389 7.35148 10.3684 6.89237 10.8276C6.43327 11.2867 6.20371 11.8441 6.20371 12.5C6.20371 13.1559 6.43327 13.7134 6.89237 14.1725C7.35148 14.6316 7.90896 14.8611 8.56482 14.8611H11.713V16.4352ZM9.35186 13.287V11.713H15.6482V13.287H9.35186ZM13.287 16.4352V14.8611H16.4352C17.0911 14.8611 17.6485 14.6316 18.1076 14.1725C18.5668 13.7134 18.7963 13.1559 18.7963 12.5C18.7963 11.8441 18.5668 11.2867 18.1076 10.8276C17.6485 10.3684 17.0911 10.1389 16.4352 10.1389H13.287V8.56482H16.4352C17.5239 8.56482 18.4521 8.94863 19.2197 9.71625C19.9874 10.4839 20.3709 11.4118 20.3704 12.5C20.3704 13.5887 19.9866 14.5169 19.2189 15.2845C18.4513 16.0522 17.5234 16.4357 16.4352 16.4352H13.287Z" fill="#0C0A0A"/>
</svg>
