<svg width="32" height="32" viewBox="0 0 32 32" fill="none" xmlns="http://www.w3.org/2000/svg">
<rect width="32" height="32" rx="16" fill="#18181B"/>
<mask id="mask0_7894_5899" style="mask-type:luminance" maskUnits="userSpaceOnUse" x="0" y="0" width="32" height="32">
<rect width="32" height="32" rx="16" fill="white"/>
</mask>
<g mask="url(#mask0_7894_5899)">
<path d="M9.47076 15.7014C9.42842 15.7319 9.39395 15.772 9.37017 15.8184C9.34639 15.8649 9.33398 15.9163 9.33398 15.9685C9.33398 16.0207 9.34639 16.0721 9.37017 16.1186C9.39395 16.165 9.42842 16.2051 9.47076 16.2356L19.6592 23.6078C19.8787 23.7651 20.1852 23.6078 20.1852 23.3385V21.3961C20.1852 20.9737 19.9822 20.5719 19.6385 20.3234L13.6165 15.9706L19.6385 11.6136C19.9822 11.3651 20.1852 10.9675 20.1852 10.5409V8.59846C20.1852 8.32925 19.8787 8.17187 19.6592 8.32925L9.47076 15.7014Z" fill="white"/>
</g>
</svg>
