<svg width="20" height="21" viewBox="0 0 20 21" fill="none" xmlns="http://www.w3.org/2000/svg">
<g clip-path="url(#clip0_7977_4064)">
<path d="M18.9907 14.0866L18.1777 12.6226L16.4297 13.5946L17.2417 15.0556C17.2897 15.1406 17.3237 15.2286 17.3457 15.3196C17.3825 15.4849 17.3776 15.6567 17.3317 15.8196C17.3074 15.9022 17.2725 15.9812 17.2277 16.0546C17.1433 16.1992 17.024 16.3202 16.8807 16.4066C16.7256 16.4987 16.5481 16.5462 16.3677 16.5436H11.7667V14.5436L7.76672 17.5436L11.7667 20.5436V18.5436H16.3677C16.6457 18.5436 16.9197 18.5066 17.1787 18.4346C17.679 18.2966 18.134 18.0289 18.4977 17.6586C18.6757 17.4796 18.8297 17.2786 18.9537 17.0656C19.3483 16.3987 19.4688 15.6046 19.2897 14.8506C19.2236 14.5841 19.1231 14.3272 18.9907 14.0866ZM3.62872 9.58264L1.31872 14.2026C1.1991 14.4418 1.11135 14.6956 1.05772 14.9576C0.96 15.4483 0.986682 15.9557 1.13533 16.4334C1.28397 16.9111 1.54985 17.344 1.90872 17.6926C2.08672 17.8666 2.28472 18.0186 2.50372 18.1456C2.96025 18.4064 3.47693 18.5436 4.00272 18.5436H5.76672V16.5436H4.00272C3.82763 16.5441 3.6554 16.4993 3.50272 16.4136C3.35688 16.3297 3.23527 16.2095 3.14972 16.0646C3.06192 15.9235 3.0107 15.7626 3.00072 15.5966C2.99589 15.5145 3.00194 15.4322 3.01872 15.3516C3.03672 15.2646 3.06672 15.1786 3.10772 15.0956L5.36372 10.5836L6.96272 11.5066L6.36472 6.54364L1.76672 8.50764L3.62872 9.58264ZM16.3647 11.5076L16.9627 6.54364L15.3247 7.48864L12.4817 2.37164C12.2833 2.00769 12.0103 1.68965 11.6807 1.43826C11.3511 1.18687 10.9722 1.00777 10.5687 0.91264C10.3157 0.854002 10.0565 0.826134 9.79671 0.82964C9.26797 0.839553 8.75121 0.988922 8.29872 1.26264C7.8157 1.55581 7.42644 1.9808 7.17672 2.48764L6.44472 3.95164L8.23372 4.84664L8.96572 3.38164C9.01072 3.29164 9.06672 3.21064 9.13171 3.13964C9.25089 3.00957 9.40449 2.91595 9.57471 2.86964C9.74755 2.82084 9.93 2.81705 10.1047 2.85864C10.2382 2.88997 10.3635 2.94945 10.4721 3.03309C10.5808 3.11673 10.6703 3.22261 10.7347 3.34364L13.5927 8.48964L11.7667 9.54364L16.3647 11.5076Z" fill="#0C0A0A"/>
</g>
<defs>
<clipPath id="clip0_7977_4064">
<rect width="20" height="20" fill="white" transform="translate(0 0.829346)"/>
</clipPath>
</defs>
</svg>
