<svg width="30" height="30" viewBox="0 0 30 30" fill="none" xmlns="http://www.w3.org/2000/svg">
<path fill-rule="evenodd" clip-rule="evenodd" d="M4.9377 13.5977C5.03521 13.5001 5.09 13.3679 5.09 13.23C5.09 13.092 5.03521 12.9598 4.9377 12.8623C4.84018 12.7647 4.70791 12.71 4.57 12.71H0.52C0.382087 12.71 0.249823 12.7647 0.152304 12.8623C0.0547856 12.9598 0 13.092 0 13.23C0 13.3679 0.0547856 13.5001 0.152304 13.5977C0.249823 13.6952 0.382087 13.75 0.52 13.75H4.57C4.70791 13.75 4.84018 13.6952 4.9377 13.5977Z" fill="white"/>
<path fill-rule="evenodd" clip-rule="evenodd" d="M3.54977 18.0566C3.64728 18.1542 3.77955 18.2089 3.91746 18.2089H7.96746C8.10537 18.2089 8.23764 18.1542 8.33516 18.0566C8.43267 17.9591 8.48746 17.8269 8.48746 17.6889C8.48746 17.551 8.43267 17.4188 8.33516 17.3212C8.23764 17.2237 8.10537 17.1689 7.96746 17.1689H3.91746C3.77955 17.1689 3.64728 17.2237 3.54977 17.3212C3.45225 17.4188 3.39746 17.551 3.39746 17.6889C3.39746 17.8269 3.45225 17.9591 3.54977 18.0566Z" fill="white"/>
<path fill-rule="evenodd" clip-rule="evenodd" d="M2.3023 14.9395C2.17029 14.9486 2.04667 15.0075 1.9564 15.1042C1.86612 15.201 1.81592 15.3284 1.81592 15.4607C1.81592 15.593 1.86612 15.7204 1.9564 15.8172C2.04667 15.9139 2.17029 15.9728 2.3023 15.982H5.8773H5.9448H6.8023C6.94021 15.982 7.07247 15.9272 7.16999 15.8297C7.26751 15.7321 7.3223 15.5999 7.3223 15.462C7.3223 15.324 7.26751 15.1918 7.16999 15.0943C7.07247 14.9967 6.94021 14.942 6.8023 14.942V14.9395H2.3023Z" fill="white"/>
<path fill-rule="evenodd" clip-rule="evenodd" d="M1.30109 15.8191C1.39136 15.7224 1.44157 15.595 1.44157 15.4627C1.44157 15.3303 1.39136 15.2029 1.30109 15.1062C1.21081 15.0094 1.08719 14.9506 0.955188 14.9414H0.765188C0.633182 14.9506 0.509563 15.0094 0.419288 15.1062C0.329014 15.2029 0.278809 15.3303 0.278809 15.4627C0.278809 15.595 0.329014 15.7224 0.419288 15.8191C0.509563 15.9159 0.633182 15.9748 0.765188 15.9839H0.955188C1.08719 15.9748 1.21081 15.9159 1.30109 15.8191Z" fill="white"/>
<path fill-rule="evenodd" clip-rule="evenodd" d="M10.0977 19.5546C10.0001 19.4571 9.86787 19.4023 9.72996 19.4023H0.979961C0.842048 19.4023 0.709784 19.4571 0.612265 19.5546C0.514746 19.6522 0.459961 19.7844 0.459961 19.9223C0.459961 20.0603 0.514746 20.1925 0.612265 20.29C0.709784 20.3876 0.842048 20.4423 0.979961 20.4423H9.72996C9.86787 20.4423 10.0001 20.3876 10.0977 20.29C10.1952 20.1925 10.25 20.0603 10.25 19.9223C10.25 19.7844 10.1952 19.6522 10.0977 19.5546Z" fill="white"/>
<path fill-rule="evenodd" clip-rule="evenodd" d="M23.2998 18.9394C23.6323 18.2744 23.4998 18.2344 23.2198 17.7394C22.6598 16.7494 21.1798 15.1419 20.6698 12.0619C20.6698 12.0619 21.4898 9.87438 21.5798 8.46938C21.5798 8.46938 21.8948 7.58688 20.5248 8.01938C20.5248 8.01938 18.8023 9.06938 17.8648 9.32688C16.1648 9.12688 13.6723 7.89938 12.7498 5.99938C12.7498 5.99938 13.5173 4.39938 12.8473 4.02938C12.3848 3.77938 11.0098 5.20688 11.0098 5.20688L6.50981 10.4569L6.16231 11.1044C6.0893 11.2406 6.05663 11.3948 6.06814 11.5488C6.07965 11.7029 6.13487 11.8506 6.22731 11.9744C7.42481 13.5669 12.1323 19.8494 14.8223 23.1694C7.13981 23.2294 2.99231 24.4194 5.93481 24.8169C8.34731 25.1544 13.8473 25.0669 17.9623 25.0394C18.4433 25.1817 18.9337 25.2903 19.4298 25.3644L26.3548 25.4269C27.2598 25.3819 28.0673 25.3144 28.7123 25.2419C28.9229 25.2195 29.1232 25.1389 29.2905 25.009C29.4579 24.8792 29.5858 24.7053 29.6598 24.5069C30.3848 22.5444 29.2123 20.4994 26.3373 19.3394C24.7373 18.6994 23.9523 18.3394 23.2998 18.9394ZM12.2673 10.1469L13.8398 13.4294L15.5348 12.7494L15.9723 17.9244L14.1873 14.7044L12.4998 15.5169L12.2673 10.1469Z" fill="white"/>
</svg>
