<svg width="31" height="30" viewBox="0 0 31 30" fill="none" xmlns="http://www.w3.org/2000/svg">
<rect width="31" height="30" fill="#797979"/>
<path d="M-179 -854C-179 -855.105 -178.105 -856 -177 -856H1231C1232.1 -856 1233 -855.105 1233 -854V118C1233 119.105 1232.1 120 1231 120H-177C-178.105 120 -179 119.105 -179 118V-854Z" fill="#404040"/>
<path d="M-177 -855H1231V-857H-177V-855ZM1232 -854V118H1234V-854H1232ZM1231 119H-177V121H1231V119ZM-178 118V-854H-180V118H-178ZM-177 119C-177.552 119 -178 118.552 -178 118H-180C-180 119.657 -178.657 121 -177 121V119ZM1232 118C1232 118.552 1231.55 119 1231 119V121C1232.66 121 1234 119.657 1234 118H1232ZM1231 -855C1231.55 -855 1232 -854.552 1232 -854H1234C1234 -855.657 1232.66 -857 1231 -857V-855ZM-177 -857C-178.657 -857 -180 -855.657 -180 -854H-178C-178 -854.552 -177.552 -855 -177 -855V-857Z" fill="white" fill-opacity="0.1"/>
<g clip-path="url(#clip0_18_11784)">
<rect width="390" height="844" transform="translate(-114 -775)" fill="#292929"/>
<rect x="-100" y="-20" width="361" height="70" rx="25" fill="black" fill-opacity="0.32"/>
<g opacity="0.4" clip-path="url(#clip1_18_11784)">
<path d="M9.25 15C12.1516 15 14.5 12.6516 14.5 9.75C14.5 6.84844 12.1516 4.5 9.25 4.5C6.34844 4.5 4 6.84844 4 9.75C4 12.6516 6.34844 15 9.25 15ZM12.85 16.5H12.4609C11.4859 16.9688 10.4031 17.25 9.25 17.25C8.09688 17.25 7.01875 16.9688 6.03906 16.5H5.65C2.66875 16.5 0.25 18.9188 0.25 21.9V23.25C0.25 24.4922 1.25781 25.5 2.5 25.5H16C17.2422 25.5 18.25 24.4922 18.25 23.25V21.9C18.25 18.9188 15.8312 16.5 12.85 16.5ZM22.75 15C25.2344 15 27.25 12.9844 27.25 10.5C27.25 8.01562 25.2344 6 22.75 6C20.2656 6 18.25 8.01562 18.25 10.5C18.25 12.9844 20.2656 15 22.75 15ZM25 16.5H24.8219C24.1703 16.725 23.4813 16.875 22.75 16.875C22.0187 16.875 21.3297 16.725 20.6781 16.5H20.5C19.5438 16.5 18.6625 16.7766 17.8891 17.2219C19.0328 18.4547 19.75 20.0906 19.75 21.9V23.7C19.75 23.8031 19.7266 23.9016 19.7219 24H28C29.2422 24 30.25 22.9922 30.25 21.75C30.25 18.8484 27.9016 16.5 25 16.5Z" fill="white"/>
</g>
</g>
<defs>
<clipPath id="clip0_18_11784">
<rect width="390" height="844" fill="white" transform="translate(-114 -775)"/>
</clipPath>
<clipPath id="clip1_18_11784">
<rect width="30" height="30" fill="white" transform="translate(0.25)"/>
</clipPath>
</defs>
</svg>
