<svg width="30" height="30" viewBox="0 0 30 30" fill="none" xmlns="http://www.w3.org/2000/svg">
<rect width="30" height="30" fill="#797979"/>
<path d="M-375 -854C-375 -855.105 -374.105 -856 -373 -856H1035C1036.1 -856 1037 -855.105 1037 -854V118C1037 119.105 1036.1 120 1035 120H-373C-374.105 120 -375 119.105 -375 118V-854Z" fill="#404040"/>
<path d="M-373 -855H1035V-857H-373V-855ZM1036 -854V118H1038V-854H1036ZM1035 119H-373V121H1035V119ZM-374 118V-854H-376V118H-374ZM-373 119C-373.552 119 -374 118.552 -374 118H-376C-376 119.657 -374.657 121 -373 121V119ZM1036 118C1036 118.552 1035.55 119 1035 119V121C1036.66 121 1038 119.657 1038 118H1036ZM1035 -855C1035.55 -855 1036 -854.552 1036 -854H1038C1038 -855.657 1036.66 -857 1035 -857V-855ZM-373 -857C-374.657 -857 -376 -855.657 -376 -854H-374C-374 -854.552 -373.552 -855 -373 -855V-857Z" fill="white" fill-opacity="0.1"/>
<g clip-path="url(#clip0_18_11784)">
<rect width="390" height="844" transform="translate(-310 -775)" fill="#292929"/>
<rect x="-296" y="-20" width="361" height="70" rx="25" fill="black" fill-opacity="0.32"/>
<g opacity="0.4">
<path d="M26.33 9.14295C26.1511 9.04912 25.9521 9.00007 25.75 9H8.66625L7.22375 5.53751C7.03461 5.08153 6.71434 4.69199 6.30353 4.41827C5.89273 4.14455 5.40989 3.99897 4.91625 4.00001H2V6.50001H4.91625L10.8462 20.7313C10.9412 20.9589 11.1015 21.1534 11.3068 21.2902C11.5121 21.427 11.7533 21.5 12 21.5H22C22.5212 21.5 22.9875 21.1763 23.1712 20.69L26.9212 10.69C26.9921 10.5008 27.0161 10.2972 26.991 10.0967C26.966 9.89619 26.8927 9.70474 26.7775 9.53875C26.6625 9.37259 26.509 9.23678 26.33 9.14295Z" fill="white"/>
<path fill-rule="evenodd" clip-rule="evenodd" d="M11.75 26.75C10.6454 26.75 9.75 25.8546 9.75 24.75C9.75 23.6454 10.6454 22.75 11.75 22.75C12.8546 22.75 13.75 23.6454 13.75 24.75C13.75 25.8546 12.8546 26.75 11.75 26.75Z" fill="white"/>
<path fill-rule="evenodd" clip-rule="evenodd" d="M21.5 26.75C20.3954 26.75 19.5 25.8546 19.5 24.75C19.5 23.6454 20.3954 22.75 21.5 22.75C22.6046 22.75 23.5 23.6454 23.5 24.75C23.5 25.8546 22.6046 26.75 21.5 26.75Z" fill="white"/>
</g>
</g>
<defs>
<clipPath id="clip0_18_11784">
<rect width="390" height="844" fill="white" transform="translate(-310 -775)"/>
</clipPath>
</defs>
</svg>
