<svg width="31" height="30" viewBox="0 0 31 30" fill="none" xmlns="http://www.w3.org/2000/svg">
<rect width="31" height="30" fill="#797979"/>
<path d="M-309 -854C-309 -855.105 -308.105 -856 -307 -856H1101C1102.1 -856 1103 -855.105 1103 -854V118C1103 119.105 1102.1 120 1101 120H-307C-308.105 120 -309 119.105 -309 118V-854Z" fill="#404040"/>
<path d="M-307 -855H1101V-857H-307V-855ZM1102 -854V118H1104V-854H1102ZM1101 119H-307V121H1101V119ZM-308 118V-854H-310V118H-308ZM-307 119C-307.552 119 -308 118.552 -308 118H-310C-310 119.657 -308.657 121 -307 121V119ZM1102 118C1102 118.552 1101.55 119 1101 119V121C1102.66 121 1104 119.657 1104 118H1102ZM1101 -855C1101.55 -855 1102 -854.552 1102 -854H1104C1104 -855.657 1102.66 -857 1101 -857V-855ZM-307 -857C-308.657 -857 -310 -855.657 -310 -854H-308C-308 -854.552 -307.552 -855 -307 -855V-857Z" fill="white" fill-opacity="0.1"/>
<g clip-path="url(#clip0_18_11784)">
<rect width="390" height="844" transform="translate(-244 -775)" fill="#292929"/>
<rect x="-230" y="-20" width="361" height="70" rx="25" fill="black" fill-opacity="0.32"/>
<g opacity="0.4">
<path d="M6.61662 27C5.88328 27 5.25573 26.7391 4.73395 26.2173C4.21217 25.6956 3.95084 25.0676 3.94995 24.3333V5.66667C3.94995 4.93333 4.21128 4.30578 4.73395 3.784C5.25662 3.26222 5.88417 3.00089 6.61662 3H25.2833C26.0166 3 26.6446 3.26133 27.1673 3.784C27.6899 4.30667 27.9508 4.93422 27.9499 5.66667V24.3333C27.9499 25.0667 27.6891 25.6947 27.1673 26.2173C26.6455 26.74 26.0175 27.0009 25.2833 27H6.61662ZM15.9499 20.3333C16.7944 20.3333 17.5611 20.0889 18.2499 19.6C18.9388 19.1111 19.4166 18.4667 19.6833 17.6667H25.2833V5.66667H6.61662V17.6667H12.2166C12.4833 18.4667 12.9611 19.1111 13.6499 19.6C14.3388 20.0889 15.1055 20.3333 15.9499 20.3333Z" fill="white"/>
</g>
</g>
<defs>
<clipPath id="clip0_18_11784">
<rect width="390" height="844" fill="white" transform="translate(-244 -775)"/>
</clipPath>
</defs>
</svg>
