<svg width="31" height="30" viewBox="0 0 31 30" fill="none" xmlns="http://www.w3.org/2000/svg">
<path d="M14.2383 8.47207C13.8177 8.47207 13.3972 8.73803 13.0607 9.00399C12.3037 9.62457 11.5468 10.3338 10.7057 11.043C10.0328 11.6636 9.35989 11.6636 8.85524 11.043C8.43469 10.5111 8.5188 9.80187 9.19168 9.1813C10.4533 8.0288 11.715 6.96496 12.9766 5.90111C13.3972 5.63515 14.0701 5.45785 14.5747 5.5465C15.9205 5.72381 17.1821 6.07842 18.5279 6.34438C19.369 6.52169 20.0419 6.96496 20.4624 7.67419C21.3035 9.00399 22.0605 10.3338 22.7334 11.6636C23.0698 12.2842 23.4904 12.5501 24.1632 12.5501C25.1726 12.5501 26.1819 12.5501 27.1912 12.6388C28.0323 12.6388 28.537 13.1707 28.537 13.8799C28.537 14.6778 27.9482 15.1211 27.1071 15.1211C25.509 15.1211 23.995 15.0324 22.3969 15.0324C21.7241 15.0324 21.2194 14.7665 20.883 14.0572C20.5465 13.2594 20.126 12.5501 19.6213 11.7523C18.5279 13.4367 17.6027 15.0324 16.5092 16.7169C17.5186 17.5147 18.5279 18.224 19.5372 19.0218C19.7895 19.1992 20.0419 19.3765 20.2101 19.5538C20.8829 20.0857 21.0512 20.7949 20.6306 21.5042C19.7895 23.2772 18.8643 25.0503 17.9391 26.8234C17.6027 27.5326 16.7616 27.7986 16.0887 27.4439C15.4158 27.0893 15.1635 26.2914 15.4999 25.4936C15.8364 24.7843 16.1728 24.0751 16.5092 23.3659C16.8457 22.6566 17.1821 21.9474 17.6027 21.1495C16.2569 20.1743 14.9953 19.1992 13.6495 18.224C12.9766 19.1105 12.2196 19.997 11.5468 20.9722C11.0421 21.6815 10.4533 21.9474 9.69633 21.8588C7.76181 21.6815 5.82728 21.5928 3.89276 21.4155C2.96755 21.3268 2.46289 20.7063 2.46289 19.8197C2.547 18.9332 3.13576 18.3126 4.06097 18.4013C5.65906 18.4899 7.34126 18.7559 8.93935 18.8445C9.27579 18.8445 9.69634 18.6672 9.86456 18.4013C11.9673 15.2984 13.9859 12.1069 16.0887 8.91534C16.1728 9.09264 16.1728 9.09264 16.1728 8.91534C15.4999 8.73803 14.827 8.56072 14.2383 8.47207Z" fill="white"/>
<rect opacity="0.2" x="0.5" y="11" width="30" height="8" rx="4" fill="white"/>
<path d="M25.4263 4.92557C25.4263 6.52133 24.1646 7.76248 22.6506 7.76248C21.1367 7.76248 19.875 6.43268 19.875 4.83691C19.9591 3.24115 21.2208 2 22.7347 2C24.2487 2 25.4263 3.24115 25.4263 4.92557Z" fill="white"/>
</svg>
