<svg width="15" height="14" viewBox="0 0 15 14" fill="none" xmlns="http://www.w3.org/2000/svg">
<path d="M11.5833 7.58333V11.0833C11.5833 11.3928 11.4604 11.6895 11.2416 11.9083C11.0228 12.1271 10.7261 12.25 10.4167 12.25H3.41667C3.10725 12.25 2.8105 12.1271 2.59171 11.9083C2.37292 11.6895 2.25 11.3928 2.25 11.0833V4.08333C2.25 3.77391 2.37292 3.47717 2.59171 3.25838C2.8105 3.03958 3.10725 2.91667 3.41667 2.91667H6.91667V4.08333H3.41667V11.0833H10.4167V7.58333H11.5833ZM8.08333 1.75V2.91667H10.7585L6.21258 7.46258L7.03742 8.28742L11.5833 3.7415V6.41667H12.75V1.75H8.08333Z" fill="#39EFEE"/>
</svg>
