<svg width="19" height="18" viewBox="0 0 19 18" fill="none" xmlns="http://www.w3.org/2000/svg">
<path d="M3.5 5.25C3.5 4.83579 3.83579 4.5 4.25 4.5H14.75C15.1642 4.5 15.5 4.83579 15.5 5.25C15.5 5.66421 15.1642 6 14.75 6H4.25C3.83579 6 3.5 5.66421 3.5 5.25ZM5 9C5 8.58577 5.33579 8.25 5.75 8.25H13.25C13.6642 8.25 14 8.58577 14 9C14 9.41423 13.6642 9.75 13.25 9.75H5.75C5.33579 9.75 5 9.41423 5 9ZM6.5 12.75C6.5 12.3358 6.83579 12 7.25 12H11.75C12.1642 12 12.5 12.3358 12.5 12.75C12.5 13.1642 12.1642 13.5 11.75 13.5H7.25C6.83579 13.5 6.5 13.1642 6.5 12.75Z" fill="#83807F"/>
</svg>
