<svg width="32" height="32" viewBox="0 0 32 32" fill="none" xmlns="http://www.w3.org/2000/svg">
<g id="Frame 4553" opacity="0.4">
<g id="Union">
<path fill-rule="evenodd" clip-rule="evenodd" d="M12.3929 5C13.7538 5 14.8571 6.1033 14.8571 7.46429V14.8571C14.8571 16.2181 13.7538 17.3214 12.3929 17.3214H7.46429C6.1033 17.3214 5 16.2181 5 14.8571V7.46429C5 6.1033 6.1033 5 7.46429 5H12.3929Z" fill="white"/>
<path fill-rule="evenodd" clip-rule="evenodd" d="M24.7143 5C26.0753 5 27.1786 6.1033 27.1786 7.46429V9.92857C27.1786 11.2896 26.0753 12.3929 24.7143 12.3929H19.7857C18.4247 12.3929 17.3214 11.2896 17.3214 9.92857V7.46429C17.3214 6.1033 18.4247 5 19.7857 5H24.7143Z" fill="white"/>
<path fill-rule="evenodd" clip-rule="evenodd" d="M27.1786 17.3214C27.1786 15.9604 26.0753 14.8571 24.7143 14.8571H19.7857C18.4247 14.8571 17.3214 15.9604 17.3214 17.3214V24.7143C17.3214 26.0753 18.4247 27.1786 19.7857 27.1786H24.7143C26.0753 27.1786 27.1786 26.0753 27.1786 24.7143V17.3214Z" fill="white"/>
<path fill-rule="evenodd" clip-rule="evenodd" d="M12.3929 19.7857C13.7538 19.7857 14.8571 20.889 14.8571 22.25V24.7143C14.8571 26.0753 13.7538 27.1786 12.3929 27.1786H7.46429C6.1033 27.1786 5 26.0753 5 24.7143V22.25C5 20.889 6.1033 19.7857 7.46429 19.7857H12.3929Z" fill="white"/>
</g>
</g>
</svg>
