<svg width="32" height="32" viewBox="0 0 32 32" fill="none" xmlns="http://www.w3.org/2000/svg">
<g id="Frame 4552" opacity="0.4">
<path id="clipboard_fill" fill-rule="evenodd" clip-rule="evenodd" d="M13.5 3.25C12.8096 3.25 12.25 3.80964 12.25 4.5C12.25 5.19036 12.8096 5.75 13.5 5.75H18.5C19.1904 5.75 19.75 5.19036 19.75 4.5C19.75 3.80964 19.1904 3.25 18.5 3.25H13.5ZM8.5 4.5H9.75V5.75C9.75 7.13071 10.8693 8.25 12.25 8.25H19.75C21.1307 8.25 22.25 7.13071 22.25 5.75V4.5H23.5C24.8807 4.5 26 5.61929 26 7V20.75C26 24.8921 22.6421 28.25 18.5 28.25H8.5C7.11929 28.25 6 27.1307 6 25.75V7C6 5.61929 7.11929 4.5 8.5 4.5ZM11 14.5C11 13.8096 11.5596 13.25 12.25 13.25H19.75C20.4404 13.25 21 13.8096 21 14.5C21 15.1904 20.4404 15.75 19.75 15.75H12.25C11.5596 15.75 11 15.1904 11 14.5ZM12.25 18.25C11.5596 18.25 11 18.8096 11 19.5C11 20.1904 11.5596 20.75 12.25 20.75H16C16.6904 20.75 17.25 20.1904 17.25 19.5C17.25 18.8096 16.6904 18.25 16 18.25H12.25Z" fill="white"/>
</g>
</svg>
