<svg width="18" height="25" viewBox="0 0 18 25" fill="none" xmlns="http://www.w3.org/2000/svg">
<path d="M4.28638 13.0953L7.29053 16.5689L15.8939 16.7969L16.5712 19.2512C16.9668 20.6728 16.3432 22.1815 15.0557 22.9125C13.7816 23.6367 12.179 23.4087 11.1597 22.3626L9.99292 21.169L14.821 11.0635L13.2452 7.54972C9.00048 7.47596 6.25785 9.45414 4.28638 13.0953Z" fill="#0C0A0A" stroke="#0C0A0A" stroke-width="1.94465" stroke-linecap="round" stroke-linejoin="round"/>
<path d="M12.3678 5.84113C13.4617 5.40492 13.9215 3.98043 13.3947 2.65946C12.868 1.33848 11.5542 0.621241 10.4602 1.05746C9.3663 1.49367 8.90651 2.91815 9.43325 4.23913C9.96 5.5601 11.2738 6.27735 12.3678 5.84113Z" fill="#0C0A0A"/>
<path d="M2.00623 10.5071L2.45551 11.0234" stroke="#0C0A0A" stroke-width="2.11229" stroke-miterlimit="10" stroke-linecap="round"/>
<path d="M3.52856 8.0929L4.01808 8.70311" stroke="#0C0A0A" stroke-width="2.11229" stroke-miterlimit="10" stroke-linecap="round"/>
<path d="M5.07764 5.81299L5.80856 6.81214" stroke="#0C0A0A" stroke-width="2.11229" stroke-miterlimit="10" stroke-linecap="round"/>
<path d="M7.3241 4.13647L8.02149 5.39044" stroke="#0C0A0A" stroke-width="2.11229" stroke-miterlimit="10" stroke-linecap="round"/>
</svg>
