<svg width="15" height="17" viewBox="0 0 15 17" fill="none" xmlns="http://www.w3.org/2000/svg">
<g clip-path="url(#clip0_6673_1398)">
<path d="M9 11.666H6C6 8.66602 7.6 7.66602 8.7 7.06602C9.1 6.86602 9.4 6.66602 9.6 6.46602C10.1 5.96602 9.9 5.26602 9.8 5.06602C9.5 4.36602 8.8 3.66602 7.5 3.66602C5.4 3.66602 5 5.56602 5 5.96602L2 5.56602C2.2 3.86602 3.7 0.666016 7.5 0.666016C9.8 0.666016 11.8 1.96602 12.6 3.86602C13.3 5.56602 13 7.36602 11.8 8.56602C11.3 9.06602 10.7 9.36602 10.2 9.66602C9.3 10.166 9 10.666 9 11.666ZM9.5 14.666C9.50602 14.9324 9.45877 15.1972 9.36103 15.445C9.26328 15.6929 9.11701 15.9187 8.9308 16.1092C8.74458 16.2997 8.52218 16.4511 8.27666 16.5545C8.03113 16.6579 7.76742 16.7112 7.50101 16.7112C7.2346 16.7113 6.97087 16.6581 6.72529 16.5549C6.47971 16.4516 6.25723 16.3003 6.07093 16.1099C5.88462 15.9195 5.73823 15.6937 5.64036 15.446C5.54249 15.1982 5.49511 14.9334 5.501 14.667C5.51256 14.1445 5.72822 13.6472 6.10184 13.2816C6.47545 12.9161 6.97732 12.7114 7.50001 12.7112C8.0227 12.7111 8.52467 12.9156 8.89847 13.2809C9.27227 13.6463 9.48818 14.1435 9.5 14.666Z" fill="#83807F"/>
</g>
<defs>
<clipPath id="clip0_6673_1398">
<rect width="15" height="16" fill="white" transform="translate(0 0.666016)"/>
</clipPath>
</defs>
</svg>
